<?xml version="1.0" standalone="no"?>
<!DOCTYPE svg PUBLIC "-//W3C//DTD SVG 20010904//EN"
 "http://www.w3.org/TR/2001/REC-SVG-20010904/DTD/svg10.dtd">
<svg version="1.0" xmlns="http://www.w3.org/2000/svg"
 width="1024.000000pt" height="1024.000000pt" viewBox="0 0 1024.000000 1024.000000"
 preserveAspectRatio="xMidYMid meet">
<metadata>
Created by potrace 1.14, written by Peter Selinger 2001-2017
</metadata>
<g transform="translate(0.000000,1024.000000) scale(0.100000,-0.100000)"
fill="#000000" stroke="none">
<path d="M3814 7090 c-233 -61 -422 -262 -465 -492 l-12 -65 -61 19 c-189 59
-366 14 -520 -132 -124 -118 -171 -233 -164 -404 3 -89 8 -110 36 -170 18 -38
31 -70 30 -71 -2 -1 -32 -17 -68 -36 -89 -46 -195 -154 -243 -246 -98 -188
-102 -412 -9 -603 49 -100 169 -222 262 -269 134 -65 127 -64 670 -70 l495 -6
5 -361 5 -361 29 -41 c70 -101 213 -120 309 -41 73 60 77 79 77 337 0 126 3
231 6 235 3 3 29 -13 58 -35 58 -46 182 -108 271 -134 54 -16 119 -18 627 -21
l567 -4 3 -402 3 -402 28 -58 c16 -31 43 -68 61 -82 102 -78 240 -70 334 19
69 64 66 48 72 506 l5 415 565 5 c604 6 591 5 728 59 194 77 354 258 424 481
33 106 33 290 0 405 -57 198 -171 341 -359 451 -49 28 -62 41 -57 53 82 183
85 394 8 557 -104 220 -371 380 -602 359 -40 -3 -101 -15 -135 -25 -34 -11
-65 -20 -68 -20 -4 0 -12 28 -19 62 -37 190 -165 376 -334 487 -227 148 -486
162 -736 39 -91 -45 -117 -63 -196 -142 -76 -77 -98 -106 -137 -186 -46 -93
-77 -190 -77 -238 0 -21 -3 -23 -27 -17 -16 3 -51 22 -80 41 -29 19 -83 47
-120 61 -89 35 -235 38 -325 6 -55 -19 -58 -19 -58 -2 0 37 -51 176 -87 239
-59 101 -163 199 -264 248 -46 23 -111 49 -144 57 -81 20 -223 18 -311 -5z"/>
</g>
</svg>
