<svg width="242" height="170" viewBox="0 0 242 170" fill="none" xmlns="http://www.w3.org/2000/svg">
<path d="M144.857 81.7322C144.857 76.3566 143.16 71.264 140.33 66.7372C137.218 62.2104 133.257 59.0982 128.165 56.8348H128.448C130.711 52.308 131.56 47.7813 130.994 42.9716C130.428 38.1618 128.448 33.918 125.335 30.5229C121.94 27.1278 117.979 24.5815 113.453 23.4498C108.926 22.3181 104.116 22.8839 99.5893 24.8644C98.7405 18.0742 95.6283 12.1328 90.5357 7.32312C85.4431 2.79634 79.2187 0.250023 72.4286 0.250023C65.3555 0.250023 59.1311 2.79634 54.0385 7.32312C48.9459 12.1328 45.8337 18.0742 45.2678 24.8644C40.4581 22.8839 35.6484 22.3181 31.1216 23.4498C26.5949 24.5815 22.6339 27.1278 19.5218 30.5229C16.1267 33.918 14.1462 38.1618 13.5804 42.9716C13.0145 47.7813 13.8633 52.308 16.6925 56.8348C11.5999 59.0982 7.35603 62.2104 4.52678 66.7372C1.41462 71.264 0 76.3566 0 81.7322C0 89.654 2.82924 96.4442 8.48772 101.82C13.5804 106.629 20.6535 108.893 27.7266 108.893H63.375V136.336C63.375 141.146 67.3359 145.107 72.1456 145.107H72.4286C77.2383 145.107 81.4821 141.146 81.4821 136.336V108.893H116.848C123.921 108.893 130.994 106.629 136.086 101.82C141.745 96.4442 144.857 89.654 144.857 81.7322Z" fill="#50574C"/>
<path d="M241.43 95.1875C241.43 88.916 239.449 82.9746 236.149 77.6934C232.518 72.4121 227.897 68.7812 221.955 66.1406H222.285C224.926 60.8594 225.916 55.5781 225.256 49.9668C224.596 44.3555 222.285 39.4043 218.655 35.4434C214.694 31.4824 210.073 28.5117 204.791 27.1914C199.51 25.8711 193.899 26.5312 188.617 28.8418C187.627 20.9199 183.996 13.9883 178.055 8.37695C172.114 3.0957 164.852 0.125 156.93 0.125C148.678 0.125 141.416 3.0957 135.475 8.37695C129.533 13.9883 125.903 20.9199 125.242 28.8418C119.631 26.5312 114.02 25.8711 108.739 27.1914C103.457 28.5117 98.8362 31.4824 95.2053 35.4434C91.2444 39.4043 88.9338 44.3555 88.2737 49.9668C87.6135 55.5781 88.6038 60.8594 91.9045 66.1406C85.9631 68.7812 81.012 72.4121 77.7112 77.6934C74.0803 82.9746 72.4299 88.916 72.4299 95.1875C72.4299 104.43 75.7307 112.352 82.3323 118.623C88.2737 124.234 96.5256 126.875 104.778 126.875H146.367V158.893C146.367 164.504 150.989 169.125 156.6 169.125H156.93C162.541 169.125 167.492 164.504 167.492 158.893V126.875H208.752C217.004 126.875 225.256 124.234 231.198 118.623C237.799 112.352 241.43 104.43 241.43 95.1875Z" fill="#656361"/>
<path d="M144.857 81.7322C144.857 76.3566 143.16 71.264 140.33 66.7372C137.218 62.2104 133.257 59.0982 128.165 56.8348H128.448C130.711 52.308 131.56 47.7813 130.994 42.9716C130.428 38.1618 128.448 33.918 125.335 30.5229C121.94 27.1278 117.979 24.5815 113.453 23.4498C108.926 22.3181 104.116 22.8839 99.5893 24.8644C98.7405 18.0742 95.6283 12.1328 90.5357 7.32312C85.4431 2.79634 79.2187 0.250023 72.4286 0.250023C65.3555 0.250023 59.1311 2.79634 54.0385 7.32312C48.9459 12.1328 45.8337 18.0742 45.2678 24.8644C40.4581 22.8839 35.6484 22.3181 31.1216 23.4498C26.5949 24.5815 22.6339 27.1278 19.5218 30.5229C16.1267 33.918 14.1462 38.1618 13.5804 42.9716C13.0145 47.7813 13.8633 52.308 16.6925 56.8348C11.5999 59.0982 7.35603 62.2104 4.52678 66.7372C1.41462 71.264 0 76.3566 0 81.7322C0 89.654 2.82924 96.4442 8.48772 101.82C13.5804 106.629 20.6535 108.893 27.7266 108.893H63.375V136.336C63.375 141.146 67.3359 145.107 72.1456 145.107H72.4286C77.2383 145.107 81.4821 141.146 81.4821 136.336V108.893H116.848C123.921 108.893 130.994 106.629 136.086 101.82C141.745 96.4442 144.857 89.654 144.857 81.7322Z" fill="#50574C"/>
<path d="M241.43 95.1875C241.43 88.916 239.449 82.9746 236.149 77.6934C232.518 72.4121 227.897 68.7812 221.955 66.1406H222.285C224.926 60.8594 225.916 55.5781 225.256 49.9668C224.596 44.3555 222.285 39.4043 218.655 35.4434C214.694 31.4824 210.073 28.5117 204.791 27.1914C199.51 25.8711 193.899 26.5312 188.617 28.8418C187.627 20.9199 183.996 13.9883 178.055 8.37695C172.114 3.0957 164.852 0.125 156.93 0.125C148.678 0.125 141.416 3.0957 135.475 8.37695C129.533 13.9883 125.903 20.9199 125.242 28.8418C119.631 26.5312 114.02 25.8711 108.739 27.1914C103.457 28.5117 98.8362 31.4824 95.2053 35.4434C91.2444 39.4043 88.9338 44.3555 88.2737 49.9668C87.6135 55.5781 88.6038 60.8594 91.9045 66.1406C85.9631 68.7812 81.012 72.4121 77.7112 77.6934C74.0803 82.9746 72.4299 88.916 72.4299 95.1875C72.4299 104.43 75.7307 112.352 82.3323 118.623C88.2737 124.234 96.5256 126.875 104.778 126.875H146.367V158.893C146.367 164.504 150.989 169.125 156.6 169.125H156.93C162.541 169.125 167.492 164.504 167.492 158.893V126.875H208.752C217.004 126.875 225.256 124.234 231.198 118.623C237.799 112.352 241.43 104.43 241.43 95.1875Z" fill="#656361"/>
</svg>
